<?xml version="1.0" encoding="UTF-8"?>
<svg width="88px" height="70px" viewBox="0 0 88 70" version="1.1" xmlns="http://www.w3.org/2000/svg" xmlns:xlink="http://www.w3.org/1999/xlink">
    <!-- Generator: Sketch 46.2 (44496) - http://www.bohemiancoding.com/sketch -->
    <title>icon-md</title>
    <desc>Created with Sketch.</desc>
    <defs></defs>
    <g id="Components" stroke="none" stroke-width="1" fill="none" fill-rule="evenodd">
        <g id="Elements" transform="translate(-241.000000, -212.000000)" fill="#22CFF1">
            <g id="Icons" transform="translate(146.000000, 94.000000)">
                <g id="Picture" transform="translate(4.000000, 118.000000)">
                    <path d="M177.4176,0 L92.5162781,0 C92.1134211,0.000613146343 91.7273162,0.161275401 91.4429416,0.44662647 C91.1585671,0.731977539 90.9992293,1.11863087 90.9999971,1.5214876 L90.9999971,68.4779339 C90.9990756,68.8808907 91.1583455,69.2676928 91.4427367,69.5531691 C91.7271279,69.8386453 92.1133207,69.999387 92.5162781,70 L177.4176,70 C177.820558,69.999387 178.206751,69.8386453 178.491142,69.5531691 C178.775533,69.2676928 178.934803,68.8808907 178.933881,68.4779339 L178.933881,1.5214876 C178.934649,1.11863087 178.775311,0.731977539 178.490937,0.44662647 C178.206562,0.161275401 177.820457,0.000613146343 177.4176,1.64423112e-14 L177.4176,0 Z M175.901898,66.9564463 L94.0319806,66.9564463 L94.0319806,3.04355372 L175.901898,3.04355372 L175.901898,66.9564463 L175.901898,66.9564463 Z M115.2576,33.6879339 C118.688082,33.7005796 121.787814,31.6438398 123.109374,28.4781103 C124.430934,25.3123809 123.713612,21.6621802 121.292362,19.2319719 C118.871112,16.8017635 115.223585,16.0709661 112.052997,17.380826 C108.882409,18.6906859 106.814235,21.7828009 106.814212,25.2133058 C106.810364,29.8831165 110.587807,33.6745357 115.2576,33.6879339 L115.2576,33.6879339 Z M115.2576,19.7822314 C117.455931,19.7740357 119.442393,21.0918777 120.289505,23.1204551 C121.136616,25.1490325 120.677286,27.4882106 119.125975,29.0458241 C117.574665,30.6034375 115.237368,31.0722487 113.205373,30.2333691 C111.173377,29.3944895 109.847492,27.4133871 109.846774,25.2150413 C109.845802,22.2232266 112.265801,19.7946895 115.2576,19.785124 L115.2576,19.7822314 Z M101.612807,60.8693388 C101.98132,60.8694736 102.33713,60.7346814 102.613055,60.4904132 L127.345617,38.6353719 L142.965452,54.3130579 C143.349778,54.6960407 143.909229,54.8448958 144.433065,54.7035509 C144.956901,54.562206 145.365539,54.1521348 145.505048,53.6278071 C145.644558,53.1034794 145.493745,52.5445531 145.109419,52.1615702 L137.820162,44.846281 L151.739749,29.5469421 L168.809914,45.2535537 C169.429751,45.8192348 170.390804,45.7753328 170.956485,45.1554959 C171.522166,44.5356589 171.478264,43.5746067 170.858427,43.0089256 L152.669419,26.2696694 C152.370742,26.0010653 151.979831,25.8582561 151.578344,25.8710744 C151.17585,25.8893472 150.797194,26.0671218 150.52603,26.365124 L135.677352,42.6890083 L128.486443,35.4714876 C127.921652,34.9039785 127.012478,34.874814 126.412476,35.4049587 L100.610824,58.2047107 C99.9814393,58.7613667 99.92041,59.7220597 100.474295,60.3538843 C100.761544,60.6820679 101.176669,60.8700135 101.612807,60.8693388 L101.612807,60.8693388 Z" id="icon-md"></path>
                </g>
            </g>
        </g>
    </g>
</svg>