<?xml version="1.0" encoding="UTF-8"?>
<svg width="56px" height="55px" viewBox="0 0 56 55" version="1.1" xmlns="http://www.w3.org/2000/svg" xmlns:xlink="http://www.w3.org/1999/xlink">
    <!-- Generator: Sketch 46.2 (44496) - http://www.bohemiancoding.com/sketch -->
    <title>user_icon</title>
    <desc>Created with Sketch.</desc>
    <defs></defs>
    <g id="Components" stroke="none" stroke-width="1" fill="none" fill-rule="evenodd">
        <g id="Elements" transform="translate(-150.000000, -632.000000)" fill="#22CFF1">
            <g id="Icons" transform="translate(146.000000, 94.000000)">
                <g id="User-Icons" transform="translate(3.000000, 537.000000)">
                    <path d="M56.0510117,28.473012 C56.0606504,15.8618764 47.4991533,4.85715543 35.272885,1.76535992 C23.0466168,-1.32643559 10.2830576,4.28557581 4.2966613,15.3853007 C-1.68973503,26.4850256 0.632352069,40.2331538 9.93219668,48.7510012 L9.90619926,48.7739401 L10.7989813,49.5269478 C10.8570932,49.5755782 10.9213221,49.6159507 10.9782106,49.6639695 C11.4528929,50.0572952 11.9440913,50.4304346 12.4463003,50.7919517 C12.6084019,50.9090931 12.7705035,51.0262344 12.9356636,51.1403172 C13.4702929,51.508563 14.0181758,51.8582538 14.5793123,52.1893896 C14.7016531,52.2612649 14.823994,52.3316108 14.9463348,52.4016509 C15.5598739,52.7509339 16.1865647,53.0800307 16.8282423,53.3825184 C16.8753435,53.4045397 16.9233622,53.424726 16.9704635,53.4467473 C19.0902373,54.4312846 21.3277109,55.1394187 23.6279445,55.5537619 C23.6891149,55.5647726 23.7502853,55.5757832 23.8114557,55.5864881 C24.5360191,55.7115815 25.2688406,55.811901 26.0105317,55.8788826 C26.1022873,55.8871406 26.1906786,55.8920342 26.2818225,55.8999864 C27.0204551,55.9611568 27.7673458,56 28.5240237,56 C29.273667,56 30.013523,55.9611568 30.7481796,55.9021274 C30.8399352,55.8941752 30.9344435,55.8889757 31.0274225,55.8810236 C31.7614673,55.814042 32.489701,55.716781 33.2075357,55.5935227 C33.2687061,55.582512 33.3326292,55.5718072 33.3947172,55.5598789 C35.6604551,55.153601 37.8657127,54.4623963 39.9579957,53.5027182 C40.0341529,53.4675452 40.1109218,53.4345132 40.1873848,53.3984227 C40.805002,53.1080672 41.4092636,52.7957922 42.0001697,52.4615979 C42.1472845,52.378712 42.293176,52.2946027 42.4393732,52.2083525 C42.9779786,51.8911839 43.5074085,51.5599462 44.0221574,51.2072988 C44.2056687,51.0812877 44.3891799,50.9482421 44.5726911,50.816114 C45.0122004,50.499863 45.4434518,50.1738248 45.8630808,49.8321881 C45.9548364,49.7569485 46.0560734,49.6921079 46.1472173,49.6147273 L47.0647734,48.8500972 L47.0375525,48.8268525 C52.7812164,43.6192878 56.0552595,36.2259718 56.0510117,28.473012 Z M2.99944885,28.473012 C2.98884949,16.7262409 10.9966811,6.48891975 22.4003618,3.67062039 C33.8040424,0.85232104 45.6588004,6.1808127 51.1213862,16.5801829 C56.583972,26.9795531 54.2437825,39.7643731 45.4517098,47.5545081 C45.1665674,47.3548086 44.8678404,47.1752454 44.5577043,47.017126 L36.0825447,42.7798521 C35.3249319,42.4042666 34.8466903,41.6306824 34.8493494,40.7850852 L34.8493494,37.8250493 C35.0457064,37.5831204 35.2527682,37.3087711 35.4668646,37.0075069 C36.5777572,35.4305713 37.4594347,33.7040816 38.0855697,31.8795918 C39.3609114,31.2797067 40.1743591,29.9964762 40.1727039,28.5870948 L40.1727039,25.0392113 C40.1700417,24.168168 39.8553694,23.3269078 39.285733,22.6679406 L39.285733,17.995745 C39.4584403,15.8669122 38.7806603,13.7563693 37.400767,12.1261388 C35.5561734,10.0200418 32.5701401,8.95384164 28.5252471,8.95384164 C24.4803541,8.95384164 21.4943207,10.0200418 19.6497272,12.1249154 C18.2697563,13.7552232 17.5919712,15.8658918 17.7647612,17.9948275 L17.7647612,22.6661054 C17.1953402,23.3253208 16.8807041,24.1665927 16.8777903,25.037682 L16.8777903,28.5855655 C16.8768671,29.6802989 17.3687469,30.7173016 18.2171163,31.4091914 C18.833402,33.7182957 19.8840883,35.8888006 21.3129505,37.8045572 L21.3129505,40.7012817 C21.3131466,41.5179778 20.8674193,42.2696149 20.1507128,42.6611815 L12.23618,46.9782828 C11.9757361,47.1216337 11.7243604,47.2808758 11.4834781,47.4551061 C6.08345267,42.6230878 2.99781063,35.7192989 2.99944885,28.473012 Z M43.4979271,49.1250582 C43.1474207,49.3791193 42.7914089,49.6244126 42.4298918,49.8609382 C42.2635083,49.9689039 42.0983482,50.0768697 41.929212,50.1820828 C41.4569765,50.4744773 40.9758713,50.7513754 40.4858963,51.0127769 C40.3776247,51.0699712 40.2687414,51.124107 40.1595522,51.180078 C39.0340687,51.7584812 37.8670749,52.2522683 36.6682514,52.6573432 C36.6260438,52.6714124 36.5841421,52.6879284 36.5410169,52.7004684 C35.9134086,52.9088555 35.2781539,53.0930804 34.635253,53.253143 L34.6291359,53.253143 C33.9805257,53.4130016 33.3252887,53.5471687 32.663425,53.6556442 C32.6453797,53.6583969 32.6273344,53.6626788 32.6092892,53.6654315 C31.987492,53.7669744 31.361107,53.840073 30.7322753,53.8948205 C30.621251,53.9049136 30.5102267,53.9119482 30.397979,53.9199004 C29.7764877,53.9670016 29.1519379,53.9969751 28.5243295,53.9969751 C27.8896866,53.9969751 27.2571846,53.9663899 26.628047,53.918677 C26.5188578,53.9107248 26.4099745,53.9036902 26.3017029,53.893903 C25.6670599,53.8376262 25.0354755,53.7626924 24.4100081,53.6605379 L24.3258988,53.6455511 C23.0043363,53.424871 21.7023304,53.0998553 20.4320967,52.6735534 L20.3140378,52.6337926 C19.6843904,52.4194923 19.063103,52.1815394 18.4501756,51.919934 L18.4370239,51.913817 C17.8586577,51.6645476 17.2909964,51.3883632 16.7303696,51.0968862 C16.657271,51.0589605 16.5832548,51.02287 16.5113796,50.9840268 C15.9996891,50.7109009 15.4993152,50.415142 15.0056701,50.107149 C14.8598806,50.0149856 14.7148048,49.9218027 14.5704426,49.8276003 C14.1159465,49.530618 13.6675675,49.2214016 13.2311166,48.8938341 C13.1861564,48.8598845 13.1430312,48.823794 13.098071,48.7901502 C13.1286562,48.7717991 13.1619941,48.7537538 13.1941085,48.7360144 L21.1086413,44.4186073 C22.4695676,43.6769864 23.3163301,42.2508539 23.3159754,40.7009759 L23.3159754,37.0955922 L23.0859747,36.8172669 C21.6621703,34.9751659 20.6389494,32.8559046 20.0818961,30.5953192 L19.9901405,30.1977115 L19.6488096,29.9765805 C19.171647,29.6733902 18.8816511,29.1481472 18.8792859,28.5828128 L18.8792859,25.0349294 C18.8810096,24.5660184 19.0840813,24.1204415 19.4368542,23.8115213 L19.7671744,23.5133155 L19.7671744,17.9385507 L19.7579988,17.8073402 C19.631251,16.2253802 20.1333756,14.6572437 21.1554367,13.4431376 C22.6027285,11.7936777 25.0831884,10.955949 28.5264705,10.955949 C31.9556834,10.955949 34.4294146,11.7866431 35.879459,13.4241748 C37.5732675,15.3369734 37.2958597,17.7896008 37.2940246,17.8094811 L37.2848491,23.5160682 L37.6151692,23.8139681 C37.9676501,24.1231055 38.1706584,24.5685432 38.1727375,25.0373762 L38.1727375,28.5852597 C38.1633039,29.3118293 37.6854584,29.949039 36.9906194,30.161621 L36.4929982,30.314547 L36.3330376,30.8100273 C35.7614997,32.6064616 34.9189509,34.3050705 33.8345324,35.8471043 C33.5724172,36.2174911 33.3170307,36.5456703 33.0977348,36.7970807 L32.8496889,37.0802996 L32.8496889,40.7829442 C32.8440864,42.3877621 33.7517317,43.8560572 35.1897627,44.5684747 L43.6640047,48.8072779 C43.7178347,48.8344988 43.7710529,48.8626372 43.8239653,48.8904697 C43.7159996,48.9715205 43.6058928,49.0467601 43.4979271,49.1247523 L43.4979271,49.1250582 Z" id="user_icon"></path>
                </g>
            </g>
        </g>
    </g>
</svg>